<svg xmlns="http://www.w3.org/2000/svg" xmlns:xlink="http://www.w3.org/1999/xlink" xmlns:fi="http://pattern.flaticon.com/" x="0" y="0" width="700" height="350" viewBox="0 0 700 350"><rect x="0px" y="0px" width="100%" height="100%" opacity="1" fill="#fffc85"/><defs><g transform="matrix(0.1697916491523753 0.04549553527192747 -0.04549553527192747 0.1697916491523753 -31.819805153394643 -55.11351921262151)" id="L1_261"><path d="M256,512C114.839,512,0,397.161,0,256S114.839,0,256,0s256,114.839,256,256S397.161,512,256,512z" fill="#ffcd00"/><path d="M512,256C512,114.839,397.161,0,256,0v512C397.161,512,512,397.161,512,256z" fill="#ffa733"/><path d="M372.895,256c0-9.225-7.475-16.699-16.699-16.699H140.785c7.757-38.067,41.491-66.797,81.816-66.797  h133.594c9.225,0,16.699-7.475,16.699-16.699c0-9.225-7.475-16.699-16.699-16.699H222.601c-64.455,0-116.895,52.44-116.895,116.895  s52.44,116.895,116.895,116.895h133.594c9.225,0,16.699-7.475,16.699-16.699c0-9.225-7.475-16.699-16.699-16.699H222.601  c-40.325,0-74.059-28.731-81.816-66.797h215.411C365.42,272.699,372.895,265.225,372.895,256z" fill="#ffffff"/><g><path d="M372.895,256c0-9.225-7.475-16.699-16.699-16.699H256v33.399h100.196   C365.42,272.699,372.895,265.225,372.895,256z" fill="#ffe6b3"/><path d="M372.895,356.196c0-9.225-7.475-16.699-16.699-16.699H256v33.399h100.196   C365.42,372.895,372.895,365.42,372.895,356.196z" fill="#ffe6b3"/><path d="M356.196,139.105H256v33.399h100.196c9.225,0,16.699-7.475,16.699-16.699   C372.895,146.58,365.42,139.105,356.196,139.105z" fill="#ffe6b3"/></g></g><g transform="matrix(0.0390625 0 0 0.0390625 77.5 340)" id="L1_262"><path d="M495.304,512H16.696C7.479,512,0,504.521,0,495.304V16.696C0,7.479,7.479,0,16.696,0h478.609  C504.521,0,512,7.479,512,16.696v478.609C512,504.521,504.521,512,495.304,512z" fill="#6dc82a"/><path d="M495.304,0H256v512h239.304c9.217,0,16.696-7.479,16.696-16.696V16.696  C512,7.479,504.521,0,495.304,0z" fill="#61b325"/><path d="M183.652,445.217H139.13c-21.478,0-38.957-17.478-38.957-38.957V296.304l-28.499-28.499  c-6.521-6.521-6.521-17.087,0-23.609l28.499-28.501V105.739c0-21.478,17.478-38.957,38.957-38.957h44.522  c9.217,0,16.696,7.479,16.696,16.696s-7.479,16.696-16.696,16.696H139.13c-3.065,0-5.565,2.5-5.565,5.565v116.87  c0,4.424-1.761,8.674-4.892,11.804L107.087,256l21.587,21.587c3.13,3.13,4.891,7.379,4.891,11.804v116.87  c0,3.065,2.5,5.565,5.565,5.565h44.522c9.217,0,16.696,7.479,16.696,16.696C200.348,437.739,192.869,445.217,183.652,445.217z" fill="#ffffff"/><path d="M372.87,445.217h-44.522c-9.217,0-16.696-7.479-16.696-16.696c0-9.217,7.479-16.696,16.696-16.696  h44.522c3.065,0,5.565-2.5,5.565-5.565v-116.87c0-4.424,1.761-8.674,4.892-11.804L404.913,256l-21.587-21.587  c-3.13-3.13-4.891-7.379-4.891-11.804v-116.87c0-3.065-2.5-5.565-5.565-5.565h-44.522c-9.217,0-16.696-7.479-16.696-16.696  s7.479-16.696,16.696-16.696h44.522c21.478,0,38.957,17.478,38.957,38.957v109.956l28.499,28.499c6.521,6.521,6.521,17.087,0,23.609  l-28.499,28.501v109.956C411.826,427.739,394.348,445.217,372.87,445.217z" fill="#ffe6b3"/></g><g transform="matrix(0.078125 0 0 0.078125 155 330)" id="L1_263"><path d="M256,512C114.839,512,0,397.161,0,256S114.839,0,256,0s256,114.839,256,256S397.161,512,256,512z" fill="#6dc82a"/><path d="M512,256C512,114.839,397.161,0,256,0v512C397.161,512,512,397.161,512,256z" fill="#61b325"/><path d="M389.594,272.699H122.406c-9.225,0-16.699-7.475-16.699-16.699c0-9.225,7.475-16.699,16.699-16.699  h267.189c9.225,0,16.699,7.475,16.699,16.699C406.294,265.225,398.819,272.699,389.594,272.699z" fill="#ffffff"/><path d="M389.594,239.301H256v33.399h133.594c9.225,0,16.699-7.475,16.699-16.699  C406.294,246.775,398.819,239.301,389.594,239.301z" fill="#ffeb99"/></g><g transform="matrix(0.0390625 0 0 0.0390625 252.5 340)" id="L1_264"><path d="M256,512C114.839,512,0,397.161,0,256S114.839,0,256,0s256,114.839,256,256S397.161,512,256,512z" fill="#00d7df"/><path d="M512,256C512,114.839,397.161,0,256,0v512C397.161,512,512,397.161,512,256z" fill="#00b6bd"/><path d="M362.273,149.727c-6.523-6.523-17.091-6.523-23.614,0L149.727,338.659  c-6.523,6.517-6.523,17.096,0,23.614c3.262,3.262,7.535,4.893,11.806,4.893c4.272,0,8.546-1.631,11.806-4.893l188.932-188.932  C368.796,166.822,368.796,156.245,362.273,149.727z" fill="#ffffff"/><g><path d="M338.659,149.727L256,232.386v47.228l106.273-106.273c6.523-6.517,6.523-17.096,0-23.614   C355.75,143.204,345.182,143.204,338.659,149.727z" fill="#ffeb99"/><path d="M389.594,328.364H278.266c-9.225,0-16.699,7.475-16.699,16.699s7.475,16.699,16.699,16.699h111.329   c9.225,0,16.699-7.475,16.699-16.699S398.819,328.364,389.594,328.364z" fill="#ffeb99"/></g><path d="M161.371,222.601c0,9.225,7.475,16.699,16.699,16.699c9.225,0,16.699-7.475,16.699-16.699v-38.965  h38.965c9.225,0,16.699-7.475,16.699-16.699s-7.475-16.699-16.699-16.699h-38.965v-38.965c0-9.225-7.475-16.699-16.699-16.699  c-9.225,0-16.699,7.475-16.699,16.699v38.965h-38.965c-9.225,0-16.699,7.475-16.699,16.699s7.475,16.699,16.699,16.699h38.965  V222.601z" fill="#ffffff"/></g><g transform="matrix(0.07812514901161194 0 0 0.07812514901161194 242.5 67.5)" id="L1_265"><g><path d="M495.304,459.13H16.695c-6.749,0-12.837-4.065-15.423-10.305s-1.152-13.424,3.62-18.196   l372.87-372.87c6.521-6.521,17.087-6.521,23.609,0c6.521,6.516,6.521,17.092,0,23.609L57,425.739h438.304   c9.217,0,16.696,7.473,16.696,16.696C511.999,451.657,504.521,459.13,495.304,459.13z" fill="#aa6100"/><path d="M239.304,459.13H16.695c-6.749,0-12.837-4.065-15.423-10.305s-1.152-13.424,3.62-18.196   l157.336-157.332c6.521-6.521,17.087-6.521,23.609,0c45.25,45.245,70.163,105.311,70.163,169.137   C255.999,451.657,248.521,459.13,239.304,459.13z M57,425.739h164.945c-3.456-43.114-20.24-83.571-48.381-116.56L57,425.739z" fill="#aa6100"/></g><g><path d="M495.304,425.739H57l344.37-344.37c6.521-6.516,6.521-17.092,0-23.609l0,0L16.695,442.435h495.304   C511.999,433.212,504.521,425.739,495.304,425.739z" fill="#884e00"/><path d="M16.695,442.435h222.609c0-61.372-24.964-117.025-65.274-157.334L16.695,442.435z M57,425.739   l116.566-116.56c28.141,32.99,44.924,73.445,48.381,116.56H57z" fill="#884e00"/></g></g><g transform="matrix(0.13671875 0 0 0.13671875 315 140)" id="L1_266"><path d="M495.304,478.609h-16.696v-66.783v-33.391V278.261V244.87V144.696v-33.391V33.391h16.696  c9.217,0,16.696-7.473,16.696-16.696S504.521,0,495.304,0h-33.391H50.087H16.696C7.479,0,0,7.473,0,16.696  s7.479,16.696,16.696,16.696h16.696v77.913v33.391V244.87v33.391v100.174v33.391v66.783H16.696C7.479,478.609,0,486.082,0,495.304  S7.479,512,16.696,512h33.391h411.826h33.391c9.217,0,16.696-7.473,16.696-16.696S504.521,478.609,495.304,478.609z M66.783,33.391  h378.435v11.13v66.783H66.783V33.391z M66.783,144.696h378.435V244.87H66.783V144.696z M66.783,278.261h378.435v100.174H66.783  V278.261z M445.217,434.087v44.522H66.783v-66.783h378.435V434.087z" fill="#6a563d"/><path d="M478.609,378.435V278.261V244.87V144.696v-33.391V33.391h16.696c9.217,0,16.696-7.473,16.696-16.696  S504.521,0,495.304,0h-33.391H256v33.391h189.217v11.13v66.783H256v33.391h189.217V244.87H256v33.391h189.217v100.174H256v33.391  h189.217v22.261v44.522H256V512h205.913h33.391c9.217,0,16.696-7.473,16.696-16.696s-7.479-16.696-16.696-16.696h-16.696v-66.783  V378.435z" fill="#554431"/><g><path d="M150.261,178.087c-27.619,0-50.087-22.468-50.087-50.087s22.468-50.087,50.087-50.087   s50.087,22.468,50.087,50.087S177.88,178.087,150.261,178.087z" fill="#aa6100"/><path d="M283.826,178.087c-27.619,0-50.087-22.468-50.087-50.087s22.468-50.087,50.087-50.087   s50.087,22.468,50.087,50.087S311.445,178.087,283.826,178.087z" fill="#aa6100"/><path d="M150.261,311.652c-27.619,0-50.087-22.468-50.087-50.087s22.468-50.087,50.087-50.087   s50.087,22.468,50.087,50.087S177.88,311.652,150.261,311.652z" fill="#aa6100"/><path d="M283.826,311.652c-27.619,0-50.087-22.468-50.087-50.087s22.468-50.087,50.087-50.087   s50.087,22.468,50.087,50.087S311.445,311.652,283.826,311.652z" fill="#aa6100"/><path d="M150.261,445.217c-27.619,0-50.087-22.468-50.087-50.087c0-27.619,22.468-50.087,50.087-50.087   s50.087,22.468,50.087,50.087C200.348,422.749,177.88,445.217,150.261,445.217z" fill="#aa6100"/></g><g><path d="M200.348,395.13c0-27.619-22.468-50.087-50.087-50.087v100.174   C177.88,445.217,200.348,422.749,200.348,395.13z" fill="#884e00"/><path d="M200.348,261.565c0-27.619-22.468-50.087-50.087-50.087v100.174   C177.88,311.652,200.348,289.184,200.348,261.565z" fill="#884e00"/><path d="M200.348,128c0-27.619-22.468-50.087-50.087-50.087v100.174   C177.88,178.087,200.348,155.619,200.348,128z" fill="#884e00"/><path d="M333.913,261.565c0-27.619-22.468-50.087-50.087-50.087v100.174   C311.445,311.652,333.913,289.184,333.913,261.565z" fill="#884e00"/><path d="M333.913,128c0-27.619-22.468-50.087-50.087-50.087v100.174   C311.445,178.087,333.913,155.619,333.913,128z" fill="#884e00"/></g></g><g transform="matrix(0.17578125 0 0 0.17578125 217.5 217.5)" id="L1_267"><path d="M256,512C114.839,512,0,397.161,0,256S114.839,0,256,0s256,114.839,256,256S397.161,512,256,512z" fill="#6dc82a"/><path d="M512,256C512,114.839,397.161,0,256,0v512C397.161,512,512,397.161,512,256z" fill="#61b325"/><path d="M389.594,239.301H272.699V122.406c0-9.225-7.475-16.699-16.699-16.699  c-9.225,0-16.699,7.475-16.699,16.699v116.895H122.406c-9.225,0-16.699,7.475-16.699,16.699c0,9.225,7.475,16.699,16.699,16.699  h116.895v116.895c0,9.225,7.475,16.699,16.699,16.699c9.225,0,16.699-7.475,16.699-16.699V272.699h116.895  c9.225,0,16.699-7.475,16.699-16.699C406.294,246.775,398.819,239.301,389.594,239.301z" fill="#ffffff"/><path d="M389.594,239.301H272.699V122.406c0-9.225-7.475-16.699-16.699-16.699v133.594v33.399v133.594  c9.225,0,16.699-7.475,16.699-16.699V272.699h116.895c9.225,0,16.699-7.475,16.699-16.699  C406.294,246.775,398.819,239.301,389.594,239.301z" fill="#ffeb99"/></g><g transform="matrix(0.078125 0 0 0.078125 67.5 67.5)" id="L1_268"><path d="M217.043,233.739H16.696C7.479,233.739,0,226.266,0,217.043V16.696C0,7.473,7.479,0,16.696,0h200.348  c9.217,0,16.696,7.473,16.696,16.696v200.348C233.739,226.266,226.261,233.739,217.043,233.739z" fill="#6dc82a"/><path d="M217.043,0H116.87v233.739h100.174c9.217,0,16.696-7.473,16.696-16.696V16.696  C233.739,7.473,226.261,0,217.043,0z" fill="#61b325"/><path d="M495.304,233.739H294.957c-9.217,0-16.696-7.473-16.696-16.696V16.696  C278.261,7.473,285.739,0,294.957,0h200.348C504.521,0,512,7.473,512,16.696v200.348C512,226.266,504.521,233.739,495.304,233.739z" fill="#6dc82a"/><path d="M495.304,0H395.13v233.739h100.174c9.217,0,16.696-7.473,16.696-16.696V16.696  C512,7.473,504.521,0,495.304,0z" fill="#61b325"/><path d="M217.043,512H16.696C7.479,512,0,504.527,0,495.304V294.957c0-9.223,7.479-16.696,16.696-16.696  h200.348c9.217,0,16.696,7.473,16.696,16.696v200.348C233.739,504.527,226.261,512,217.043,512z" fill="#6dc82a"/><path d="M217.043,278.261H116.87V512h100.174c9.217,0,16.696-7.473,16.696-16.696V294.957  C233.739,285.734,226.261,278.261,217.043,278.261z" fill="#61b325"/><path d="M495.304,512H294.957c-9.217,0-16.696-7.473-16.696-16.696V294.957  c0-9.223,7.479-16.696,16.696-16.696h200.348c9.217,0,16.696,7.473,16.696,16.696v200.348C512,504.527,504.521,512,495.304,512z" fill="#ff5023"/><path d="M495.304,278.261H395.13V512h100.174c9.217,0,16.696-7.473,16.696-16.696V294.957  C512,285.734,504.521,278.261,495.304,278.261z" fill="#cd2a00"/><path d="M150.261,100.174h-16.696V83.478c0-9.223-7.479-16.696-16.696-16.696s-16.696,7.473-16.696,16.696  v16.696H83.478c-9.217,0-16.696,7.473-16.696,16.696s7.479,16.696,16.696,16.696h16.696v16.696c0,9.223,7.479,16.696,16.696,16.696  s16.696-7.473,16.696-16.696v-16.696h16.696c9.217,0,16.696-7.473,16.696-16.696S159.478,100.174,150.261,100.174z" fill="#ffffff"/><path d="M133.565,150.261v-16.696h16.696c9.217,0,16.696-7.473,16.696-16.696s-7.479-16.696-16.696-16.696  h-16.696V83.478c0-9.223-7.479-16.696-16.696-16.696v100.174C126.087,166.957,133.565,159.484,133.565,150.261z" fill="#ffe6b3"/><path d="M428.522,133.565h-66.783c-9.217,0-16.696-7.473-16.696-16.696s7.479-16.696,16.696-16.696h66.783  c9.217,0,16.696,7.473,16.696,16.696S437.739,133.565,428.522,133.565z" fill="#ffffff"/><path d="M428.522,100.174H395.13v33.391h33.391c9.217,0,16.696-7.473,16.696-16.696  S437.739,100.174,428.522,100.174z" fill="#ffe6b3"/><path d="M428.522,378.435h-66.783c-9.217,0-16.696-7.473-16.696-16.696s7.479-16.696,16.696-16.696h66.783  c9.217,0,16.696,7.473,16.696,16.696S437.739,378.435,428.522,378.435z" fill="#ffffff"/><path d="M428.522,345.043H395.13v33.391h33.391c9.217,0,16.696-7.473,16.696-16.696  S437.739,345.043,428.522,345.043z" fill="#ffe6b3"/><path d="M428.522,445.217h-66.783c-9.217,0-16.696-7.473-16.696-16.696s7.479-16.696,16.696-16.696h66.783  c9.217,0,16.696,7.473,16.696,16.696S437.739,445.217,428.522,445.217z" fill="#ffffff"/><path d="M428.522,411.826H395.13v33.391h33.391c9.217,0,16.696-7.473,16.696-16.696  S437.739,411.826,428.522,411.826z" fill="#ffe6b3"/><path d="M152.282,359.718c-6.521-6.521-17.087-6.521-23.609,0l-11.804,11.804l-11.804-11.804  c-6.521-6.521-17.087-6.521-23.609,0c-6.521,6.516-6.521,17.092,0,23.609l11.804,11.804l-11.804,11.804  c-6.521,6.516-6.521,17.092,0,23.609c3.261,3.261,7.533,4.892,11.804,4.892s8.544-1.631,11.804-4.892l11.805-11.804l11.804,11.804  c3.261,3.261,7.533,4.892,11.804,4.892s8.544-1.631,11.804-4.892c6.521-6.516,6.521-17.092,0-23.609l-11.803-11.804l11.804-11.804  C158.805,376.81,158.805,366.234,152.282,359.718z" fill="#ffffff"/><path d="M128.673,430.543c3.261,3.261,7.533,4.892,11.804,4.892s8.544-1.631,11.804-4.892  c6.521-6.516,6.521-17.092,0-23.609l-11.803-11.804l11.804-11.804c6.521-6.516,6.521-17.092,0-23.609  c-6.521-6.521-17.087-6.521-23.609,0l-11.804,11.804v47.217L128.673,430.543z" fill="#ffe6b3"/></g><g transform="matrix(0.13206017156295854 -0.03538541632261026 0.03538541632261026 0.13206017156295854 132.1339295012944 150.25126265847084)" id="L1_269"><path d="M495.304,512H16.696C7.479,512,0,504.527,0,495.304V16.696C0,7.473,7.479,0,16.696,0h478.609  C504.521,0,512,7.473,512,16.696v478.609C512,504.527,504.521,512,495.304,512z" fill="#6dc82a"/><path d="M495.304,0H256v512h239.304c9.217,0,16.696-7.473,16.696-16.696V16.696  C512,7.473,504.521,0,495.304,0z" fill="#61b325"/><path d="M183.652,445.217H116.87c-9.217,0-16.696-7.473-16.696-16.696V83.478  c0-9.223,7.479-16.696,16.696-16.696h66.783c9.217,0,16.696,7.473,16.696,16.696s-7.479,16.696-16.696,16.696h-50.087v311.652  h50.087c9.217,0,16.696,7.473,16.696,16.696S192.869,445.217,183.652,445.217z" fill="#ffffff"/><path d="M395.13,445.217h-66.783c-9.217,0-16.696-7.473-16.696-16.696s7.479-16.696,16.696-16.696h50.087  V100.174h-50.087c-9.217,0-16.696-7.473-16.696-16.696s7.479-16.696,16.696-16.696h66.783c9.217,0,16.696,7.473,16.696,16.696  v345.043C411.826,437.744,404.348,445.217,395.13,445.217z" fill="#ffe6b3"/></g><g transform="matrix(0.09765625 0 0 0.09765625 62.5 237.5)" id="L1_270"><path d="M389.524,512c-7.337,0-14.075-4.881-16.098-12.31l-16.26-59.614  c-2.424-8.891,2.815-18.07,11.717-20.5c8.859-2.419,18.076,2.815,20.5,11.717l16.26,59.614c2.424,8.891-2.815,18.07-11.717,20.5  C392.458,511.81,390.98,512,389.524,512z" fill="#554431"/><path d="M122.418,512c-1.457,0-2.935-0.19-4.402-0.592c-8.902-2.43-14.141-11.609-11.717-20.5l16.26-59.614  c2.424-8.902,11.652-14.141,20.5-11.717c8.902,2.43,14.141,11.609,11.717,20.5l-16.26,59.614  C136.494,507.119,129.755,512,122.418,512z" fill="#c2dff6"/><path d="M255.971,194.78c-36.824,0-66.782-29.958-66.782-66.782c0-2.374,0.129-4.718,0.372-7.029  l-16.198-2.863L99.124,390.289c-3.522,12.908-1.804,26.412,4.837,38.038c6.641,11.609,17.413,19.946,30.337,23.473  c4.326,1.18,8.761,1.777,13.185,1.777c22.511,0,42.369-15.185,48.293-36.924l60.514-221.881  C256.183,194.773,256.077,194.78,255.971,194.78z" fill="#e6f4ff"/><path d="M215.238,180.866l-80.94,270.933c4.326,1.18,8.761,1.777,13.185,1.777  c22.511,0,42.369-15.185,48.293-36.924l60.514-221.881c-0.107,0-0.211,0.008-0.318,0.008  C240.646,194.78,226.521,189.579,215.238,180.866z" fill="#c2dff6"/><path d="M256.03,194.78c36.824,0,66.782-29.958,66.782-66.782c0-2.374-0.129-4.718-0.372-7.029l16.198-2.863  l74.238,272.182c3.522,12.908,1.804,26.412-4.837,38.038c-6.641,11.609-17.413,19.946-30.337,23.473  c-4.326,1.18-8.761,1.777-13.185,1.777c-22.511,0-42.369-15.185-48.293-36.924l-60.514-221.881  C255.817,194.773,255.922,194.78,256.03,194.78z" fill="#e6f4ff"/><path d="M296.761,180.866l80.94,270.933c-4.326,1.18-8.761,1.777-13.185,1.777  c-22.511,0-42.369-15.185-48.293-36.924l-60.514-221.881c0.107,0,0.211,0.008,0.318,0.008  C271.354,194.78,285.479,189.579,296.761,180.866z" fill="#c2dff6"/><path d="M255.971,77.912c-9.217,0-16.695-7.473-16.695-16.695V16.695C239.275,7.473,246.753,0,255.971,0  c9.217,0,16.695,7.473,16.695,16.695v44.521C272.666,70.439,265.189,77.912,255.971,77.912z" fill="#554431"/><path d="M255.971,44.521c-46.032,0-83.477,37.446-83.477,83.477s37.446,83.477,83.477,83.477  s83.477-37.446,83.477-83.477S302.003,44.521,255.971,44.521z M255.971,178.085c-27.618,0-50.086-22.469-50.086-50.086  s22.469-50.086,50.086-50.086s50.086,22.469,50.086,50.086S283.589,178.085,255.971,178.085z" fill="#00d7df"/><path d="M306.057,127.999c0,27.618-22.469,50.086-50.086,50.086v33.391c46.032,0,83.477-37.446,83.477-83.477  s-37.446-83.477-83.477-83.477v33.391C283.589,77.912,306.057,100.381,306.057,127.999z" fill="#00b6bd"/></g></defs><g fi:class="KUsePattern"><pattern id="pattern_L1_261" width="350" height="350" patternUnits="userSpaceOnUse"><use xlink:href="#L1_261" x="-350" y="-350"/><use xlink:href="#L1_261" x="0" y="-350"/><use xlink:href="#L1_261" x="350" y="-350"/><use xlink:href="#L1_261" x="-350" y="0"/><use xlink:href="#L1_261" x="0" y="0"/><use xlink:href="#L1_261" x="350" y="0"/><use xlink:href="#L1_261" x="-350" y="350"/><use xlink:href="#L1_261" x="0" y="350"/><use xlink:href="#L1_261" x="350" y="350"/></pattern><rect x="0" y="0" width="100%" height="100%" fill="url(#pattern_L1_261)"/></g><g fi:class="KUsePattern"><pattern id="pattern_L1_262" width="350" height="350" patternUnits="userSpaceOnUse"><use xlink:href="#L1_262" x="-350" y="-350"/><use xlink:href="#L1_262" x="0" y="-350"/><use xlink:href="#L1_262" x="350" y="-350"/><use xlink:href="#L1_262" x="-350" y="0"/><use xlink:href="#L1_262" x="0" y="0"/><use xlink:href="#L1_262" x="350" y="0"/><use xlink:href="#L1_262" x="-350" y="350"/><use xlink:href="#L1_262" x="0" y="350"/><use xlink:href="#L1_262" x="350" y="350"/></pattern><rect x="0" y="0" width="100%" height="100%" fill="url(#pattern_L1_262)"/></g><g fi:class="KUsePattern"><pattern id="pattern_L1_263" width="350" height="350" patternUnits="userSpaceOnUse"><use xlink:href="#L1_263" x="-350" y="-350"/><use xlink:href="#L1_263" x="0" y="-350"/><use xlink:href="#L1_263" x="350" y="-350"/><use xlink:href="#L1_263" x="-350" y="0"/><use xlink:href="#L1_263" x="0" y="0"/><use xlink:href="#L1_263" x="350" y="0"/><use xlink:href="#L1_263" x="-350" y="350"/><use xlink:href="#L1_263" x="0" y="350"/><use xlink:href="#L1_263" x="350" y="350"/></pattern><rect x="0" y="0" width="100%" height="100%" fill="url(#pattern_L1_263)"/></g><g fi:class="KUsePattern"><pattern id="pattern_L1_264" width="350" height="350" patternUnits="userSpaceOnUse"><use xlink:href="#L1_264" x="-350" y="-350"/><use xlink:href="#L1_264" x="0" y="-350"/><use xlink:href="#L1_264" x="350" y="-350"/><use xlink:href="#L1_264" x="-350" y="0"/><use xlink:href="#L1_264" x="0" y="0"/><use xlink:href="#L1_264" x="350" y="0"/><use xlink:href="#L1_264" x="-350" y="350"/><use xlink:href="#L1_264" x="0" y="350"/><use xlink:href="#L1_264" x="350" y="350"/></pattern><rect x="0" y="0" width="100%" height="100%" fill="url(#pattern_L1_264)"/></g><g fi:class="KUsePattern"><pattern id="pattern_L1_265" width="350" height="350" patternUnits="userSpaceOnUse"><use xlink:href="#L1_265" x="-350" y="-350"/><use xlink:href="#L1_265" x="0" y="-350"/><use xlink:href="#L1_265" x="350" y="-350"/><use xlink:href="#L1_265" x="-350" y="0"/><use xlink:href="#L1_265" x="0" y="0"/><use xlink:href="#L1_265" x="350" y="0"/><use xlink:href="#L1_265" x="-350" y="350"/><use xlink:href="#L1_265" x="0" y="350"/><use xlink:href="#L1_265" x="350" y="350"/></pattern><rect x="0" y="0" width="100%" height="100%" fill="url(#pattern_L1_265)"/></g><g fi:class="KUsePattern"><pattern id="pattern_L1_266" width="350" height="350" patternUnits="userSpaceOnUse"><use xlink:href="#L1_266" x="-350" y="-350"/><use xlink:href="#L1_266" x="0" y="-350"/><use xlink:href="#L1_266" x="350" y="-350"/><use xlink:href="#L1_266" x="-350" y="0"/><use xlink:href="#L1_266" x="0" y="0"/><use xlink:href="#L1_266" x="350" y="0"/><use xlink:href="#L1_266" x="-350" y="350"/><use xlink:href="#L1_266" x="0" y="350"/><use xlink:href="#L1_266" x="350" y="350"/></pattern><rect x="0" y="0" width="100%" height="100%" fill="url(#pattern_L1_266)"/></g><g fi:class="KUsePattern"><pattern id="pattern_L1_267" width="350" height="350" patternUnits="userSpaceOnUse"><use xlink:href="#L1_267" x="-350" y="-350"/><use xlink:href="#L1_267" x="0" y="-350"/><use xlink:href="#L1_267" x="350" y="-350"/><use xlink:href="#L1_267" x="-350" y="0"/><use xlink:href="#L1_267" x="0" y="0"/><use xlink:href="#L1_267" x="350" y="0"/><use xlink:href="#L1_267" x="-350" y="350"/><use xlink:href="#L1_267" x="0" y="350"/><use xlink:href="#L1_267" x="350" y="350"/></pattern><rect x="0" y="0" width="100%" height="100%" fill="url(#pattern_L1_267)"/></g><g fi:class="KUsePattern"><pattern id="pattern_L1_268" width="350" height="350" patternUnits="userSpaceOnUse"><use xlink:href="#L1_268" x="-350" y="-350"/><use xlink:href="#L1_268" x="0" y="-350"/><use xlink:href="#L1_268" x="350" y="-350"/><use xlink:href="#L1_268" x="-350" y="0"/><use xlink:href="#L1_268" x="0" y="0"/><use xlink:href="#L1_268" x="350" y="0"/><use xlink:href="#L1_268" x="-350" y="350"/><use xlink:href="#L1_268" x="0" y="350"/><use xlink:href="#L1_268" x="350" y="350"/></pattern><rect x="0" y="0" width="100%" height="100%" fill="url(#pattern_L1_268)"/></g><g fi:class="KUsePattern"><pattern id="pattern_L1_269" width="350" height="350" patternUnits="userSpaceOnUse"><use xlink:href="#L1_269" x="-350" y="-350"/><use xlink:href="#L1_269" x="0" y="-350"/><use xlink:href="#L1_269" x="350" y="-350"/><use xlink:href="#L1_269" x="-350" y="0"/><use xlink:href="#L1_269" x="0" y="0"/><use xlink:href="#L1_269" x="350" y="0"/><use xlink:href="#L1_269" x="-350" y="350"/><use xlink:href="#L1_269" x="0" y="350"/><use xlink:href="#L1_269" x="350" y="350"/></pattern><rect x="0" y="0" width="100%" height="100%" fill="url(#pattern_L1_269)"/></g><g fi:class="KUsePattern"><pattern id="pattern_L1_270" width="350" height="350" patternUnits="userSpaceOnUse"><use xlink:href="#L1_270" x="-350" y="-350"/><use xlink:href="#L1_270" x="0" y="-350"/><use xlink:href="#L1_270" x="350" y="-350"/><use xlink:href="#L1_270" x="-350" y="0"/><use xlink:href="#L1_270" x="0" y="0"/><use xlink:href="#L1_270" x="350" y="0"/><use xlink:href="#L1_270" x="-350" y="350"/><use xlink:href="#L1_270" x="0" y="350"/><use xlink:href="#L1_270" x="350" y="350"/></pattern><rect x="0" y="0" width="100%" height="100%" fill="url(#pattern_L1_270)"/></g></svg>